# xmcd
#
# Track frame offsets:
#	150
#	20103
#	36208
#	51146
#	74690
#	91119
#	108721
#	130130
#	153434
#	170388
#	188133
#	200006
#	218496
#	230630
#	251945
#	272065
#	274199
#	285986
#	307249
#	338296
#
# Disc length: 4667 seconds
#
# Revision: 0
# Processed by: cddbd v1.5.1PL2 Copyright (c) Steve Scherf et al.
# Submitted via: audiograbber 1.82.02
#
DISCID=2e123914
DTITLE=Doja Clik - The Best Of Doja Clik
DYEAR=2006
DGENRE=Rap
TTITLE0=Young Ren, Antidote, SamRaw - Tittle Back
TTITLE1=Young Ren, Nasty Trey - Stack Your Grip
TTITLE2=Young Ren, Antidote - Heat Rocks
TTITLE3=Young Ren, JT The Bigga Figga, Young Droop, Mr. Peebodie - Runnin' Back
TTITLE4=Young Ren, Antidote - Don't Take It Personal
TTITLE5=Young Ren, Lil Man, Makaholic - Livin' In Da Strange
TTITLE6=Young Ren, Mr. Peebodie, Celly Cel, Makaholic, Knowledge Bone - Who Rid
TTITLE6=e
TTITLE7=Young Ren, Mr. Peebodie, San Quinn, Guce - 209415
TTITLE8=Young Ren, Antidote - No Love
TTITLE9=Young Ren, Antidote - What!
TTITLE10=Young Ren - 7 Hizzoes
TTITLE11=Young Ren, Antidote, SamRaw - King Of Stockton
TTITLE12=Young Ren - Soulkilla Illa
TTITLE13=Young Ren, Wizardwun, Mr. Peebodie - Close Your Eyes
TTITLE14=Young Ren, Wizardwun - Rookie 2 Da Game
TTITLE15=Doja Clik - Skit
TTITLE16=Young Ren, Antidote - Fein
TTITLE17=Young Ren, Mr. Peebodie - Get Into The Land
TTITLE18=Young Ren, Wizardwun, Lil Man - Dungeon
TTITLE19=Young Ren, Antidote - Doja Life
EXTD=Cashflow420.com
EXTT0=
EXTT1=
EXTT2=
EXTT3=
EXTT4=
EXTT5=
EXTT6=
EXTT7=
EXTT8=
EXTT9=
EXTT10=
EXTT11=
EXTT12=
EXTT13=
EXTT14=
EXTT15=
EXTT16=
EXTT17=
EXTT18=
EXTT19=
PLAYORDER=
